<svg xmlns="http://www.w3.org/2000/svg" viewBox="0 0 64 64" fill="none">
  <rect width="64" height="64" rx="20" fill="#0D7180"/>
  <circle cx="20" cy="22" r="6" fill="#FDFEFE"/>
  <circle cx="44" cy="22" r="6" fill="#FDFEFE"/>
  <circle cx="16" cy="36" r="6" fill="#FDFEFE"/>
  <circle cx="48" cy="36" r="6" fill="#FDFEFE"/>
  <path d="M32 22C24.82 22 19 27.82 19 35c0 6.12 4.46 11.1 10.29 12.31.93.2 1.89-.08 2.55-.72L32 46.43l.16.16c.66.64 1.62.92 2.55.72C40.54 46.1 45 41.12 45 35c0-7.18-5.82-13-13-13Z" fill="#F28564"/>
  <path d="M32 28v10M27 33h10" stroke="#FDFEFE" stroke-linecap="round" stroke-width="3.5"/>
</svg>
